<svg id="e69HF45Y73m1" xmlns="http://www.w3.org/2000/svg" xmlns:xlink="http://www.w3.org/1999/xlink" viewBox="0 0 64 64" shape-rendering="geometricPrecision" text-rendering="geometricPrecision"><g transform="matrix(-1 0 0-1 63.995039 64.033072)"><path d="M32,53c-9.525199.018846-18.793766-3.086484-26.385-8.84L1.288,51.239c-.554498.919384-.276572,2.113092.627,2.693c18.234554,12.090577,41.935446,12.090577,60.17,0c.903572-.579908,1.181498-1.773616.627-2.693L58.385,44.16C50.793766,49.913516,41.525199,53.018846,32,53Z" fill="#17130f"/><path d="M62.712,51.239L58.385,44.16c-.681.516-1.382,1.006-2.094,1.483l3.421,5.6c.554498.919384.276572,2.113092-.627,2.693-8.483676,5.651305-18.394484,8.784209-28.585,9.036.5.013,1,.028,1.5.028c10.705423.025859,21.177034-3.130417,30.085-9.068.903572-.579908,1.181498-1.773616.627-2.693Z" fill="#595754"/><path d="M58.385,44.16c-15.615953,11.785328-37.154047,11.785328-52.77,0L26.206,10.48L32,1l5.794,9.48Z" fill="#393434"/><path d="M37.794,10.48L32,1L30.5,3.454l4.294,7.026L55.385,44.16c-7.183001,5.441783-15.878068,8.519736-24.885,8.809.5.017,1,.031,1.5.031c9.525104.018256,18.793487-3.087013,26.385-8.84Z" fill="#595754"/><path d="M37.65,10.48c-.840307.346697-1.740988.523434-2.65.52-1.038102-.000955-2.062944-.233252-3-.68-.937056.446748-1.961898.679045-3,.68-.909012.003434-1.809693-.173303-2.65-.52L32,1Z" fill="#393434"/><path d="M32,1L30.5,3.517l4.15,6.963c-.369814.151228-.752313.269357-1.143.353c1.384533.309826,2.830841.186595,4.143-.353Z" fill="#595754"/><path d="M63.565,50.718l-4.327-7.079L32.867,0.5l-.008-.012v0l-.005-.009c-.032085-.047909-.069305-.092172-.111-.132-.017-.019-.03-.042-.048-.059-.401019-.339837-.988981-.339837-1.39,0-.019.018-.033.042-.051.062-.040182.039318-.07636.08253-.108.129l-.005.008v0l-.008.013L4.762,43.639L0.435,50.718c-.831075,1.377554-.422689,3.16579.924,4.046c18.571376,12.314588,42.710624,12.314588,61.282,0c1.346689-.88021,1.755075-2.668446.924-4.046ZM56.7,44.15c-.224.159-.448.316-.674.47q-.366.251-.737.492c-.232.151-.465.3-.7.447s-.495.306-.745.455-.478.284-.719.421-.5.282-.755.42-.489.265-.735.392-.513.261-.771.388-.5.245-.747.362-.521.239-.782.355-.508.226-.764.333-.529.217-.8.322-.512.2-.77.3-.544.2-.817.292-.516.182-.775.268c-.276.09-.554.175-.832.26-.26.079-.52.161-.781.235-.284.081-.569.155-.855.229-.259.068-.518.139-.778.2-.292.071-.587.133-.88.2-.258.057-.515.116-.774.168-.3.061-.609.113-.914.167-.252.045-.5.093-.756.134-.318.05-.638.091-.958.135-.244.033-.486.07-.731.1-.336.04-.674.07-1.012.1-.231.022-.461.049-.693.067-.375.03-.754.048-1.131.068-.2.01-.391.026-.587.034Q32.869,52,32,52t-1.731-.034c-.2-.008-.391-.024-.587-.034-.377-.02-.756-.038-1.131-.068-.232-.018-.462-.045-.693-.067-.338-.032-.676-.062-1.012-.1-.245-.029-.488-.066-.732-.1-.319-.044-.639-.085-.957-.135-.253-.041-.5-.089-.757-.134-.3-.054-.61-.106-.913-.167-.259-.052-.516-.111-.774-.168-.293-.065-.588-.127-.88-.2-.26-.063-.519-.134-.778-.2-.286-.074-.571-.148-.855-.229-.261-.074-.521-.156-.781-.235-.278-.085-.556-.17-.832-.26-.259-.086-.517-.178-.775-.268-.273-.1-.546-.191-.817-.292s-.514-.2-.77-.3-.531-.211-.8-.322-.51-.22-.764-.333-.523-.233-.782-.355-.5-.239-.748-.362-.514-.255-.769-.387-.492-.26-.736-.393-.505-.277-.755-.42-.48-.279-.719-.421-.5-.3-.745-.455-.467-.3-.7-.447-.493-.325-.737-.492c-.226-.154-.45-.311-.674-.47-.118-.084-.235-.17-.352-.256L26.661,11.651c1.754845.531539,3.638668.44721,5.339-.239c1.699271.690874,3.584596.775623,5.339.24L57.05,43.894c-.117.086-.234.172-.35.256ZM36.137,9.894c-1.255829.234975-2.553781.067701-3.709-.478-.270912-.128295-.585088-.128295-.856,0-1.155277.545502-2.453165.712768-3.709.478L32,2.953ZM61.529,53.1c-17.898133,11.865233-41.159867,11.865233-59.058,0-.458333-.281046-.605057-.878645-.329-1.34L5.9,45.614c.105.075.213.145.318.219.222.158.446.312.671.465q.4.275.811.541c.228.148.458.293.688.437q.411.256.824.5.352.208.706.411c.279.159.558.314.84.466q.358.2.72.383.423.219.851.428c.245.121.491.24.738.355.287.135.575.264.865.392.249.11.5.22.749.325.292.123.585.24.879.356.253.1.507.2.762.3.3.11.594.215.893.319.256.09.512.18.771.265.3.1.6.191.909.284.259.079.517.159.778.233.308.088.618.168.929.249.259.068.517.138.777.2.316.076.633.144.951.214.26.056.518.116.779.168.324.065.651.121.976.178.257.046.512.094.769.135.337.054.676.1,1.014.143.251.034.5.073.752.1.356.043.715.074,1.074.108.235.022.469.049.7.068.4.031.8.051,1.2.072.2.01.4.026.6.034Q31.093,54,32,54t1.807-.036c.2-.008.4-.024.595-.034.4-.021.8-.041,1.2-.072.235-.018.469-.046.7-.068.359-.034.718-.065,1.075-.108.252-.029.5-.068.752-.1.338-.045.677-.089,1.014-.143.257-.041.512-.089.769-.135.325-.057.652-.113.976-.178.261-.052.519-.112.779-.168.318-.07.635-.138.951-.214.26-.063.518-.133.777-.2.311-.081.621-.161.929-.249.261-.074.519-.154.778-.233.3-.093.608-.185.909-.284.259-.085.515-.175.771-.265.3-.1.6-.209.893-.319.255-.1.508-.2.761-.3.295-.117.588-.234.88-.357.251-.105.5-.214.749-.324.289-.129.578-.258.865-.393.247-.115.493-.234.738-.355q.427-.21.851-.428.361-.187.72-.383c.282-.152.561-.307.84-.466q.354-.2.706-.411.414-.246.824-.5c.23-.144.46-.289.688-.437q.408-.266.811-.541c.225-.153.449-.307.671-.465.105-.074.213-.144.318-.219l3.756,6.147c.275611.459628.131349,1.055376-.324,1.338Z"/><circle r="3" transform="translate(32 20)" fill="#332d2d"/><path d="M32,24c-2.209139,0-4-1.790861-4-4s1.790861-4,4-4s4,1.790861,4,4-1.790861,4-4,4Zm0-6c-1.104569,0-2,.895431-2,2s.895431,2,2,2s2-.895431,2-2-.895431-2-2-2Z"/><circle r="3" transform="translate(18 41)" fill="#332d2d"/><path d="M18,45c-2.209139,0-4-1.790861-4-4s1.790861-4,4-4s4,1.790861,4,4-1.790861,4-4,4Zm0-6c-1.104569,0-2,.895431-2,2s.895431,2,2,2s2-.895431,2-2-.895431-2-2-2Z"/><circle r="3" transform="translate(46 41)" fill="#332d2d"/><path d="M46,45c-2.209139,0-4-1.790861-4-4s1.790861-4,4-4s4,1.790861,4,4-1.790861,4-4,4Zm0-6c-1.104569,0-2,.895431-2,2s.895431,2,2,2s2-.895431,2-2-.895431-2-2-2Z"/><circle r="3" transform="translate(32 44.16)" fill="#332d2d"/><path d="M32,48c-2.209139,0-4-1.790861-4-4s1.790861-4,4-4s4,1.790861,4,4-1.790861,4-4,4Zm0-6c-1.104569,0-2,.895431-2,2s.895431,2,2,2s2-.895431,2-2-.895431-2-2-2Z"/><circle r="3" transform="translate(24 30)" fill="#332d2d"/><path d="M24,34c-2.209139,0-4-1.790861-4-4s1.790861-4,4-4s4,1.790861,4,4-1.790861,4-4,4Zm0-6c-1.104569,0-2,.895431-2,2s.895431,2,2,2s2-.895431,2-2-.895431-2-2-2Z"/><circle r="3" transform="translate(40 30)" fill="#332d2d"/><path d="M40,34c-2.209139,0-4-1.790861-4-4s1.790861-4,4-4s4,1.790861,4,4-1.790861,4-4,4Zm0-6c-1.104569,0-2,.895431-2,2s.895431,2,2,2s2-.895431,2-2-.895431-2-2-2Z"/><path d="M39,38h-2c-.552285,0-1-.447715-1-1s.447715-1,1-1h2c.552285,0,1,.447715,1,1s-.447715,1-1,1Z" fill="#201f1e"/><path d="M27,38h-2c-.552285,0-1-.447715-1-1s.447715-1,1-1h2c.552285,0,1,.447715,1,1s-.447715,1-1,1Z" fill="#201f1e"/><path d="M33,30h-2c-.552285,0-1-.447715-1-1s.447715-1,1-1h2c.552285,0,1,.447715,1,1s-.447715,1-1,1Z" fill="#201f1e"/><path d="M25,24h-2c-.552285,0-1-.447715-1-1s.447715-1,1-1h2c.552285,0,1,.447715,1,1s-.447715,1-1,1Z" fill="#201f1e"/><path d="M41,24h-2c-.552285,0-1-.447715-1-1s.447715-1,1-1h2c.552285,0,1,.447715,1,1s-.447715,1-1,1Z" fill="#201f1e"/></g></svg>
